<svg xmlns="http://www.w3.org/2000/svg" viewBox="0 0 48 48" width="24" height="24"><defs><linearGradient id="a" x1="0" y1="0" x2="1" y2="0"><stop offset="0%" stop-color="#1A202C"/><stop offset="50%" stop-color="#4A5568"/><stop offset="100%" stop-color="#2D3748"/></linearGradient><linearGradient id="b" x1="0" y1="0" x2="1" y2="0"><stop offset="0%" stop-color="#CBD5E0"/><stop offset="40%" stop-color="#FFF"/><stop offset="100%" stop-color="#A0AEC0"/></linearGradient><linearGradient id="c" x1="0" y1="0" x2="1" y2="0"><stop offset="0%" stop-color="#90CDF4" stop-opacity=".8"/><stop offset="50%" stop-color="#EBF8FF" stop-opacity=".9"/><stop offset="100%" stop-color="#63B3ED" stop-opacity=".8"/></linearGradient></defs><path d="M6 14c0-3 2-4 5-4h11c2 0 3.5 1 3.5 3v3c0 1-1 1.5-2 1.5h-7l-1.5 17H8.5L6 14z" fill="url(#a)" stroke="#1A202C" stroke-width=".8"/><circle cx="19" cy="16" r="1" fill="#E53E3E"/><path d="M11 22h10c0 0 .5 6-1 9h-8c-1.5-3-1-9-1-9z" fill="url(#b)" stroke="#4A5568" stroke-width=".5"/><path d="M26 23h16l-1.2 11a2.5 2.5 0 0 1-2.5 2.2h-9.8a2.5 2.5 0 0 1-2.5-2.2L26 23z" fill="url(#c)" stroke="#2B6CB0" stroke-width=".6"/><path d="M28 23h12v-2.5a1 1 0 0 0-1-1h-10a1 1 0 0 0-1 1V23z" fill="url(#a)"/><rect x="32" y="16" width="4" height="3.5" fill="url(#b)" stroke="#1A202C" stroke-width=".4"/><circle cx="34" cy="15" r="1" fill="#E53E3E"/><path d="M15 25h14l-1 12h-12L15 25z" fill="#000" opacity=".15"/><path d="M16 27h12l-.8 9.5H16.8L16 27z" fill="url(#a)" stroke="#1A202C" stroke-width=".8"/><circle cx="22" cy="31.5" r="1.2" fill="#E53E3E"/><path d="M17.2 8.5h9.6l-1 18.5H18.2L17.2 8.5z" fill="url(#c)" stroke="#2B6CB0" stroke-width=".8"/><rect x="19.5" y="5" width="5" height="3.5" rx=".5" fill="#1A202C"/><path d="M25.5 11h2.5v7h-2.5" fill="none" stroke="#1A202C" stroke-width="1.2" stroke-linecap="round"/></svg>